<svg xmlns="http://www.w3.org/2000/svg" viewBox="0 0 52 44" fill="none">
  <path d="M0 8L8 0H28L20 8H0Z" fill="#1B4D3E"/>
  <path d="M0 8V28L8 20V8H0Z" fill="#1B4D3E" opacity="0.7"/>
  <path d="M8 20L16 12H36L28 20H8Z" fill="#1B4D3E"/>
  <path d="M24 8L32 0H52L44 8H24Z" fill="#C9A962" opacity="0.85"/>
  <path d="M44 8V28L52 20V0L44 8Z" fill="#C9A962" opacity="0.6"/>
  <path d="M28 20V44L36 36V12L28 20Z" fill="#1B4D3E" opacity="0.7"/>
  <path d="M8 28L16 20V36L8 44V28Z" fill="#1B4D3E" opacity="0.5"/>
  <path d="M16 36H36L28 44H8L16 36Z" fill="#C9A962"/>
</svg>
